<svg xmlns="http://www.w3.org/2000/svg" viewBox="0 0 1024.11 883.37"><defs><style>.cls-1{fill:#00839e;}</style></defs><g id="Layer_2" data-name="Layer 2"><g id="Layer_3" data-name="Layer 3"><polygon class="cls-1" points="637.35 53.81 536.11 101.83 445.19 144.97 445.19 236.85 536.11 198.66 637.35 156.12 750.76 108.47 750.76 0 637.35 53.81"/><polygon class="cls-1" points="445.19 144.97 363.09 183.92 363.09 96.49 445.19 53.08 445.19 144.97"/><polygon class="cls-1" points="878.69 170.13 750.76 216.93 750.76 108.47 878.69 54.72 878.69 170.13"/><polygon class="cls-1" points="637.35 360.75 536.11 392.29 536.11 295.47 637.35 258.43 637.35 360.75"/><polygon class="cls-1" points="750.76 433.87 637.35 463.06 637.35 360.75 750.76 325.4 750.76 433.87"/><polygon class="cls-1" points="878.69 170.13 878.69 285.53 878.69 400.94 878.69 516.35 1024.11 486.81 1024.11 363.51 1024.11 240.21 1024.11 116.91 878.69 170.13"/><polygon class="cls-1" points="878.69 631.76 750.76 650.8 750.76 542.34 878.69 516.35 878.69 631.76"/><polygon class="cls-1" points="637.35 667.68 536.11 682.75 445.19 696.29 445.19 788.17 536.11 779.57 637.35 770 750.76 759.27 750.76 650.8 637.35 667.68"/><polygon class="cls-1" points="445.19 880.06 363.09 883.37 363.09 795.94 445.19 788.17 445.19 880.06"/><polygon class="cls-1" points="363.09 271.35 288.59 302.66 288.59 386.05 363.09 358.78 445.19 328.74 445.19 236.85 363.09 271.35"/><polygon class="cls-1" points="363.09 621.08 288.59 636.21 288.59 719.6 363.09 708.51 445.19 696.29 445.19 604.4 363.09 621.08"/><polygon class="cls-1" points="220.66 729.71 158.49 738.96 158.49 662.63 220.66 650 220.66 729.71"/><polygon class="cls-1" points="220.66 410.9 158.49 433.65 158.49 357.32 220.66 331.19 220.66 410.9"/><polygon class="cls-1" points="220.66 490.6 158.49 509.98 101.37 527.78 101.37 601.01 158.49 586.3 220.66 570.3 288.59 552.82 288.59 469.43 220.66 490.6"/><polygon class="cls-1" points="48.71 614.56 0 627.1 0 559.37 48.71 544.19 48.71 614.56"/><polygon class="cls-1" points="536.11 585.93 445.19 604.4 445.19 512.51 536.11 489.11 536.11 585.93"/></g></g></svg>